<svg xmlns="http://www.w3.org/2000/svg" viewBox="0 0 419.04 222.51"><defs><style>.cls-1{fill:#0f78c8;}</style></defs><title>Asset 3</title><g id="Layer_2" data-name="Layer 2"><g id="Layer_1-2" data-name="Layer 1"><path class="cls-1" d="M97,213.3H77.47V198H94.78c1.48,0,2.13-.57,2.13-2v-4.93c0-1.48-.65-2-2.13-2H77.47V175.82h18.7c1.4,0,2.06-.58,2.06-2.06v-5.17c0-1.48-.66-2-2.06-2H68.35c-1.48,0-2,.66-2,2.14v51.62c0,1.48.5,2.14,2,2.14H97c1.48,0,2-.58,2-2.06v-5.18C99.05,213.8,98.48,213.3,97,213.3Z"/><path class="cls-1" d="M30,166.65H12c-1.49,0-2,.65-2,2.13v51.58c0,1.42.41,2.15,1.74,2.15H30c14.93,0,20.13-6.49,20.13-13.39V180C50.08,173.14,44.88,166.65,30,166.65Zm9,40.5c0,4.1-3.37,6.16-9,6.16H21.12V175.85H30c5.62,0,9,2.06,9,6.15Z"/><path class="cls-1" d="M261.21,168.7a2.44,2.44,0,0,0-2.64-2h-7.2a2.37,2.37,0,0,0-2.55,2l-15.44,51.75c-.41,1.33.1,2.06,1.58,2.06h6.68c1.5,0,2.06-.73,2.47-2.06l2.9-10h15.36l2.9,10c.4,1.33,1,2.06,2.38,2.06h7.44c1.42,0,1.91-.73,1.5-2.06Zm-11.81,33,5.36-23.46,5.12,23.46Z"/><path class="cls-1" d="M153.47,166.65H147c-1.5,0-2,.65-2,2v33.6l-2-5.11-17.42-29.72a1.74,1.74,0,0,0-1.75-.82h-6.52c-1.48,0-2,.65-2,2v51.75c0,1.4.49,2.06,2,2.06h6.52c1.49,0,2-.66,2-2.06v-34c.09.26,2.33,6.2,2.33,6.2l16.9,28.86a1.78,1.78,0,0,0,1.91,1h6.51c1.48,0,2-.66,2-2.06V168.7C155.45,167.3,155,166.65,153.47,166.65Z"/><path class="cls-1" d="M219.86,166.65H213c-1,0-1.57.23-1.9,1l-12.22,28.92-2.15,5.67-2.05-5.75L182.06,167.8a1.7,1.7,0,0,0-1.82-1.15h-6.52c-1.48,0-2,.65-2,2v51.75c0,1.4.5,2.06,2,2.06h6.52c1.5,0,2-.66,2-2.06v-31.7l1.89,6.74,7,16.5a2.74,2.74,0,0,0,2.66,2.06h5.86a2.78,2.78,0,0,0,2.71-2.06L209,195.81l2-7.24v31.88c0,1.4.5,2.06,2,2.06h6.85c1.48,0,2-.66,2-2.06V168.7C221.83,167.3,221.34,166.65,219.86,166.65Z"/><path class="cls-1" d="M318,199.66c6.61-2.37,9.08-7,9.08-11.81V180c0-6.89-5-13.38-20-13.38H289.74c-1.48,0-2,.65-2,2.13v51.58c0,1.49.51,2.15,2,2.15h7.18c1.48,0,2-.66,2-2.15V201.23h8.67l8.7,19.13c.58,1.33.91,2.15,2.07,2.15h7.27c1.48,0,2.47-.82,1.89-2.15Zm-2-13.79c0,4.11-3.4,6.16-8.92,6.16H298.9V175.85h8.17c5.52,0,8.92,2.06,8.92,6.15Z"/><path class="cls-1" d="M364.61,194.09l17.23-25.39c.74-1.07.5-2-1-2h-7.66a3.94,3.94,0,0,0-3.3,2l-14.68,22.1h-2.56V168.7c0-1.4-.5-2-2-2h-7.17c-1.5,0-2,.65-2,2v51.75c0,1.4.49,2.06,2,2.06h7.17c1.49,0,2-.66,2-2.06V198.93h2.63l15.51,21.52c.74,1,1.58,2.06,3,2.06h9.16c1.48,0,1.81-1.07,1.07-2.06Z"/><path class="cls-1" d="M371.28,135.25v-3.38c0-1.48-.49-2.06-1.89-2.06h-6.83c-1.47,0-2.05.58-2.05,2.06v1.41c0,4.11-2.31,6.16-7.82,6.16s-7.73-2.05-7.73-6.16V106.81c0-4.11,2.22-6.17,7.73-6.17s7.82,2.06,7.82,6.17V107c0,1.48.58,2.06,2.05,2.06h6.83c1.4,0,1.89-.58,1.89-2.06v-2.15c0-6.91-3.87-13.4-18.75-13.4s-18.75,6.49-18.75,13.4v30.41c0,6.91,3.87,13.4,18.75,13.4S371.28,142.16,371.28,135.25Z"/><path class="cls-1" d="M125.56,145.94c.41,1.32,1,2.05,2.39,2.05h7.42c1.42,0,1.91-.73,1.5-2.05L121.53,94.19a2.47,2.47,0,0,0-2.65-2.06h-7.19a2.34,2.34,0,0,0-2.54,2.06L93.71,145.94c-.41,1.32.09,2.05,1.58,2.05H102c1.49,0,2.07-.73,2.48-2.05l2.88-10h15.36Zm-15.84-18.81,5.36-23.46,5.12,23.46Z"/><path class="cls-1" d="M28.52,148.65c14.77,0,18.94-6.48,18.94-13.39v-6.33c0-6.07-4.13-9.86-9.73-11.83L25,112a4.57,4.57,0,0,1-3.39-4.44v-1.23c0-4,1.76-5.92,7.13-5.92s7.31,1.9,7.31,5.92V107c0,1.42.49,2.08,1.89,2.08h6.94c1.49,0,2.06-.66,2.06-2.08v-2.12C47,98,43,91.47,28.59,91.47S10.84,98,10.84,104.85v4.86a11.75,11.75,0,0,0,7.51,10.6l11.81,4.75c3.72,1.41,6.33,2.73,6.33,6.09v2.62c0,4-2.53,5.93-8.06,5.93s-7.78-1.89-7.78-5.93v-1.83c0-1.47-.49-2.13-2-2.13H11.74c-1.4,0-2,.66-2,2.13v3.32C9.77,142.17,13.83,148.65,28.52,148.65Z"/><path class="cls-1" d="M249.77,135.26v-6.33c0-6.07-4.12-9.86-9.73-11.83L227.34,112a4.57,4.57,0,0,1-3.39-4.44v-1.23c0-4,1.77-5.92,7.13-5.92s7.32,1.9,7.32,5.92V107c0,1.42.48,2.08,1.88,2.08h6.94c1.49,0,2.06-.66,2.06-2.08v-2.12c0-6.89-3.93-13.38-18.37-13.38S213.15,98,213.15,104.85v4.86a11.75,11.75,0,0,0,7.51,10.6l11.82,4.75c3.72,1.41,6.33,2.73,6.33,6.09v2.62c0,4-2.54,5.93-8.06,5.93s-7.79-1.89-7.79-5.93v-1.83c0-1.47-.49-2.13-2-2.13h-6.94c-1.4,0-2,.66-2,2.13v3.32c0,6.91,4.07,13.39,18.75,13.39S249.77,142.17,249.77,135.26Z"/><path class="cls-1" d="M409.3,117.1,396.6,112a4.56,4.56,0,0,1-3.38-4.44v-1.23c0-4,1.76-5.92,7.13-5.92s7.31,1.9,7.31,5.92V107c0,1.42.49,2.08,1.89,2.08h6.94c1.49,0,2.06-.66,2.06-2.08v-2.12c0-6.89-3.93-13.38-18.38-13.38S382.41,98,382.41,104.85v4.86a11.76,11.76,0,0,0,7.52,10.6l11.81,4.75c3.72,1.41,6.33,2.73,6.33,6.09v2.62c0,4-2.53,5.93-8.06,5.93s-7.78-1.89-7.78-5.93v-1.83c0-1.47-.49-2.13-2-2.13h-6.93c-1.4,0-2,.66-2,2.13v3.32c0,6.91,4.07,13.39,18.76,13.39S419,142.17,419,135.26v-6.33C419,122.86,414.91,119.07,409.3,117.1Z"/><path class="cls-1" d="M69,145.86c0,1.47.58,2.13,2.07,2.13h7.17c1.49,0,2-.66,2-2.13V101.34H92c1.38,0,2.05-.59,2.05-2.08V94.1c0-1.48-.67-2-2.05-2H57.33c-1.49,0-2.07.49-2.07,2v5.16c0,1.49.58,2.08,2.07,2.08H69Z"/><path class="cls-1" d="M175.38,99.4V94.24c0-1.48-.67-2-2.06-2H138.65c-1.47,0-2.06.49-2.06,2V99.4c0,1.49.59,2.07,2.06,2.07h11.72V146c0,1.47.57,2.13,2.06,2.13h7.19c1.48,0,2-.66,2-2.13V101.47h11.73C174.71,101.47,175.38,100.89,175.38,99.4Z"/><path class="cls-1" d="M189,148.13h7.18c1.48,0,2-.66,2-2.13V94.4c0-1.48-.49-2.13-2-2.13H189c-1.48,0-2,.65-2,2.13V146C187,147.47,187.47,148.13,189,148.13Z"/><path class="cls-1" d="M296.16,99.4V94.24c0-1.48-.67-2-2.07-2H259.4c-1.49,0-2.07.49-2.07,2V99.4c0,1.49.58,2.07,2.07,2.07h11.73V146c0,1.47.59,2.13,2.07,2.13h7.18c1.49,0,2-.66,2-2.13V101.47h11.72C295.49,101.47,296.16,100.89,296.16,99.4Z"/><path class="cls-1" d="M308.9,148.13h7.18c1.48,0,2-.66,2-2.13V94.4c0-1.48-.51-2.13-2-2.13H308.9c-1.5,0-2,.65-2,2.13V146C306.92,147.47,307.4,148.13,308.9,148.13Z"/><path class="cls-1" d="M10,59.19c0,.76.44.9.95.9H69.08c.51,0,.9-.14,1-.9v-2.6c.15-3,1-7.57,5.58-13.37,5.54-7,6.4-15.26-.73-19.06a10.58,10.58,0,0,0-9.23-.24,9.06,9.06,0,0,0-5.12-3c-7.23-1.39-12.3,5.86-18.1,5.89a23.23,23.23,0,0,0-.86-2.92A6.21,6.21,0,0,0,41,11.79V8.53h2.56a2.13,2.13,0,0,0,4-1A2.15,2.15,0,0,0,45.48,5.4a2.12,2.12,0,0,0-1.89,1.17H41V4A2.14,2.14,0,1,0,39,4V6.57H36.41A2.12,2.12,0,0,0,34.5,5.38a2.14,2.14,0,1,0,1.88,3.15H39V11.8a6.21,6.21,0,0,0-.53,12.13,23.54,23.54,0,0,0-.85,2.92c-5.8,0-10.88-7.28-18.1-5.89a9.06,9.06,0,0,0-5.12,3,10.58,10.58,0,0,0-9.23.24C-2,28-1.16,36.17,4.39,43.22,9,49,9.83,53.67,10,56.62ZM67.44,27.06c2.24-.46,4.15-.18,5.51,1.26,6,6.33-4.32,13.81-5.53,18,0,0-1.71-.83-2.83-1.26-1.6,3.27-.21,7.76.68,9.26.17.3,0,.65-.22.55A46.36,46.36,0,0,0,58,52.53a.56.56,0,0,1-.36-.63C58,47.1,62.11,42.65,64.79,39,68,34.6,68.55,30.35,67.44,27.06ZM42.78,49.92c2.32-1.9,3.65-6.1,3.68-9.07-.73-.08-2.39-.17-2.39-.17a52.76,52.76,0,0,0-1-10.15c8-.35,13.5-8.91,18.14-4.08,4.91,5.42-4.1,11.52-5.6,15.8,0,0-3-.66-5.13-.94-1,2.74.25,7.82,1.54,9.42.36.51-.14.67-.47.62A79.27,79.27,0,0,0,43,50.62C42.63,50.58,42.37,50.29,42.78,49.92Zm-24-23.47c4.64-4.83,10.18,3.73,18.14,4.08a52.76,52.76,0,0,0-1,10.15s-1.67.09-2.4.17c0,3,1.37,7.17,3.69,9.07.41.37.15.66-.2.7a79.29,79.29,0,0,0-8.61.73c-.33,0-.83-.11-.47-.62,1.29-1.6,2.53-6.68,1.54-9.42-2.13.28-5.13.94-5.13.94C22.85,38,13.84,31.87,18.75,26.45ZM7.05,28.32c1.36-1.44,3.27-1.72,5.51-1.26-1.11,3.29-.59,7.54,2.65,12C17.89,42.65,22,47.1,22.4,51.9a.56.56,0,0,1-.37.63A46.54,46.54,0,0,0,15,54.82c-.26.1-.39-.25-.22-.55.88-1.5,2.28-6,.67-9.26-1.11.43-2.82,1.26-2.82,1.26C11.36,42.13,1.08,34.65,7.05,28.32Z"/><rect class="cls-1" x="9.97" y="65.63" width="60.06" height="8.85" rx="0.76"/></g></g></svg>